<svg width="171" height="95" viewBox="0 0 171 95" xmlns="http://www.w3.org/2000/svg" xmlns:xlink="http://www.w3.org/1999/xlink"><title>404_myty_color</title><defs><path id="a" d="M0 0h171v73.923H0z"/></defs><g fill="none" fill-rule="evenodd"><path d="M112.054 85.673l-5.013 9.248h3.042l.704-1.397h3.082l.208 1.397h3.055l-1.737-9.248h-3.341zm1.123 3.096l.378 2.573h-1.671l1.293-2.573zM117.334 90.297a5.9 5.9 0 0 1 .992-2.442 5.179 5.179 0 0 1 1.919-1.66c.775-.4 1.636-.6 2.585-.6.81 0 1.497.135 2.062.405.575.26 1.001.635 1.28 1.123.287.488.418 1.062.392 1.724h-3.056a.822.822 0 0 0-.404-.418c-.192-.104-.435-.156-.731-.156-.558 0-1.023.182-1.397.548-.366.366-.6.858-.705 1.476a4.017 4.017 0 0 0-.065.64c0 1.01.587 1.516 1.762 1.516.67 0 1.258-.27 1.763-.81h-2.311l.352-2.051h4.713l-.51 2.9a7.317 7.317 0 0 1-1.97 1.776c-.792.488-1.728.732-2.808.732-.834 0-1.549-.152-2.14-.457a3.215 3.215 0 0 1-1.358-1.28c-.305-.558-.457-1.206-.457-1.947 0-.348.03-.687.092-1.019M130.453 87.972l-.195 1.15h2.872l-.392 2.181h-2.872l-.235 1.306h3.263l-.405 2.313h-6.161l1.632-9.25h6.162l-.405 2.3zM142.185 94.922h-2.898l-2.245-4.65-.823 4.65h-2.898l1.632-9.25h2.898l2.233 4.73.835-4.73h2.898zM143.624 90.297a6.008 6.008 0 0 1 .978-2.442 5.134 5.134 0 0 1 1.88-1.66c.758-.4 1.602-.6 2.533-.6.801 0 1.488.152 2.063.457a3.074 3.074 0 0 1 1.332 1.267c.304.549.452 1.189.444 1.92h-3.055a1.275 1.275 0 0 0-.47-.705c-.227-.174-.505-.261-.836-.261-.488 0-.905.182-1.253.548-.348.366-.574.858-.679 1.476a2.875 2.875 0 0 0-.052.562c0 .453.108.81.326 1.072.226.26.544.39.953.39.33 0 .64-.082.927-.247.287-.174.526-.414.718-.719h3.055a5.694 5.694 0 0 1-1.136 1.92 5.215 5.215 0 0 1-1.775 1.28 5.486 5.486 0 0 1-2.22.445c-.81 0-1.5-.148-2.076-.444a3.089 3.089 0 0 1-1.305-1.28c-.295-.558-.444-1.202-.444-1.934 0-.357.03-.705.092-1.045M162.226 85.673l-4.452 6.44-.495 2.809h-2.9l.497-2.81-2.18-6.439h3.316l.901 3.279 2.05-3.279zM103.597 85.673l-1.995 3.277-.891-3.277H89.423l-1.995 3.277-.892-3.277h-6.228l-2.887 5.533-1.053-5.533H72.88l-1.59 9.233h2.855l.794-4.609.6 4.609h2.433l2.189-4.625-.794 4.625h2.837l1.413-8.209 1.8 5.401-.471 2.808h2.837l.47-2.808 2.81-4.121h2.153l-1.2 6.945h2.838l1.2-6.945h2.164l1.373 4.121-.47 2.808h2.838l.47-2.808 4.378-6.425zM64.674 91.342l-.379-2.573-1.293 2.573h1.672zm.313 2.182h-3.082l-.704 1.398h-3.042l5.013-9.249h3.342l1.736 9.249h-3.055l-.208-1.398z" fill="#000"/><g><mask id="b" fill="#fff"><use xlink:href="#a"/></mask><path d="M171 51.047V40.682h-9.653V19.555h-11.56v21.127H135.71V1.75h-11.56v49.297h25.635v21.126h11.56V51.047H171zm-63.999 7.46c1.19-2.997 1.786-6.196 1.786-9.6v-23.89c0-3.335-.597-6.52-1.786-9.547a24.487 24.487 0 0 0-5.097-8.02c-2.214-2.313-4.868-4.131-7.96-5.457C90.846.663 87.393 0 83.583 0c-3.809 0-7.244.664-10.307 1.993-3.06 1.326-5.68 3.144-7.856 5.458-2.175 2.315-3.86 4.99-5.052 8.019-1.192 3.027-1.783 6.212-1.783 9.547v23.89c0 3.404.591 6.603 1.783 9.6a24.985 24.985 0 0 0 5.052 7.958c2.177 2.317 4.795 4.137 7.856 5.466 3.063 1.33 6.498 1.992 10.307 1.992 3.81 0 7.263-.663 10.36-1.992 3.092-1.329 5.746-3.149 7.96-5.466A24.55 24.55 0 0 0 107 58.508zm-23.417 4.896c-1.226 0-2.37-.158-3.45-.44l15.545-44.371c.128.29.293.552.406.855.645 1.74.968 3.596.968 5.57v23.89c0 1.974-.323 3.83-.968 5.562-.648 1.741-1.548 3.272-2.703 4.596-1.157 1.33-2.572 2.386-4.239 3.168-1.662.782-3.517 1.17-5.559 1.17zm0-52.887c1.232 0 2.386.161 3.48.446L71.567 55.187c-.1-.245-.239-.462-.329-.718-.611-1.733-.918-3.588-.918-5.562v-23.89c0-1.974.307-3.83.918-5.57a14.044 14.044 0 0 1 2.65-4.589 12.853 12.853 0 0 1 4.184-3.168c1.635-.781 3.472-1.174 5.512-1.174zM46.85 51.047V40.682h-9.653V19.555h-11.56v21.127H11.561V1.75H0v49.297h25.635v21.126h11.561V51.047h9.653z" fill="#5532FF" mask="url(#b)"/></g></g></svg>